<?xml version="1.0" encoding="utf-8"?>
<!-- Generator: Adobe Illustrator 22.0.0, SVG Export Plug-In . SVG Version: 6.00 Build 0)  -->
<svg version="1.1" id="Layer_1" xmlns="http://www.w3.org/2000/svg" xmlns:xlink="http://www.w3.org/1999/xlink" x="0px" y="0px"
	 viewBox="0 0 828 1800" style="enable-background:new 0 0 828 1800;" xml:space="preserve">
<style type="text/css">
	.st0{fill:#474747;}
	.st1{fill:none;stroke:#000000;stroke-width:8.200000e-02;}
	.st2{fill:none;stroke:#2C2C2C;stroke-width:8.200000e-02;}
	.st3{fill:none;stroke:#000000;stroke-width:8.200000e-02;stroke-miterlimit:10;}
	.st4{fill:#474747;stroke:#000000;stroke-width:1.000000e-02;stroke-miterlimit:10;}
	.st5{fill:#474747;stroke:#000000;stroke-width:8.200000e-02;stroke-miterlimit:10;}
</style>
<title>pg 1</title>
<desc>Created with Sketch.</desc>
<g id="Page-1">
	<g id="pg-1">
		<g id="sarah" transform="translate(0.000000, 306.000000)">
			<path class="st0" d="M598.4,166.9c3.4-2.8,6.2-5.1,8.9-7.3c8.3-6.7,17.4-11.8,28-13.8c5.6-1,11.2-1.3,16.5,1c6.8,3,9.2,9,9.6,16
				c0.5,8.9-1.4,17.4-3.6,25.9c-3.3,12.8-6.6,25.7-9.9,38.5c-0.1,0.3-0.2,0.6-0.2,1c-1.2,6.2,0.7,8.2,7,7.1c3.6-0.7,7.2-1.8,10.7-3
				c1.8-0.6,2.7-0.3,3.1,1.5c0,0.2,0.1,0.4,0.2,0.6c1.7,6.7,1.8,6.7-4.5,9.6c-6.9,3.2-13.8,6.5-21.8,6.7c-9.5,0.3-14.3-4-13-13.5
				c1.3-9.8,3.7-19.5,5.8-29.2c2.4-11.2,5.3-22.3,7.4-33.6c1.7-9.2-5.1-14.6-14.4-12.5c-6.5,1.5-12.4,4.4-17.6,8.5
				c-5.1,4.1-10.3,8.3-14.4,13.3c-2.3,2.8-2.8,7.2-3.6,10.9c-2.9,14.3-5.6,28.6-8.3,42.9c-0.6,3-1.1,6-1.8,9
				c-0.2,0.9-1.1,2.3-1.6,2.3c-5,0.2-10,0.1-15.5,0.1c0.8-4.9,1.5-9.2,2.4-13.6c2.9-14.9,5.7-29.9,8.7-44.8
				c3.2-16.3,6.5-32.6,9.7-48.9c2.2-11.2,4.4-22.3,6.5-33.6c0.3-1.9,1.1-2.7,2.9-2.8c4.3-0.4,8.5-0.9,12.8-1.2
				c2.1-0.2,2.1,1.1,1.7,2.8c-3.8,19.2-7.6,38.5-11.3,57.7C598.5,165.1,598.5,165.5,598.4,166.9z"/>
			<path class="st0" d="M293.2,232.5c-4.7,3.6-8.8,6.9-13.1,9.9c-7,4.9-14.3,9-23.1,9.2c-8.7,0.2-16-5.1-19.2-13.3
				c-4-10.2-3.3-20.8-2-31.2c1.6-12.8,6.3-24.6,13.9-35.1c9.2-12.6,21-21.6,36.4-25.3c9.5-2.3,19-1.3,28.4,0.3
				c3.2,0.5,6.5,1.2,9.6,2.1c0.8,0.2,1.8,1.7,1.7,2.4c-2,10.6-4.1,21.3-6.2,31.9c-3,15.4-6.1,30.7-9,46.1c-0.7,3.6,1.6,6.2,5.3,5.7
				c4.2-0.6,8.4-1.7,12.4-2.9c2.1-0.6,2.9-0.2,3.5,1.9c2.3,8,2.1,6.5-3.9,9.4c-6.2,2.9-12.7,5.3-19.3,7.1c-8,2.2-14.8-1.8-15-11.8
				C293.6,237,293.4,235.1,293.2,232.5z M251.8,215.1c0.3,2,0.5,4.9,1,7.8c1.6,9.9,8.7,14,18,10.5c9.2-3.5,16.8-9.2,24-15.8
				c0.7-0.6,1.3-1.6,1.5-2.5c0.9-4.2,1.7-8.4,2.5-12.5c2.3-11.8,4.5-23.7,6.9-35.4c0.6-2.7-0.2-3.7-2.5-4.2
				c-2.9-0.6-5.8-0.9-8.7-1.7c-11.8-3.2-20.7,1.5-28,10.4C256.5,184.1,252.8,198.6,251.8,215.1z"/>
			<path class="st0" d="M510.9,232.5c-4.6,3.5-8.6,6.7-12.8,9.7c-5.4,3.8-11.1,6.8-17.5,8.6c-12.8,3.6-23.3-4.3-26.2-15.9
				c-2.8-11.4-2.2-22.9,0.3-34.2c3.1-13.6,9-25.8,18.8-36c14.3-14.9,31.5-21.7,52.2-18.5c5.4,0.8,10.8,1.9,16.1,2.8
				c1.7,0.3,2.2,1,1.8,2.7c-2.6,12.9-5.2,25.7-7.7,38.6c-2.6,13.1-5.1,26.2-7.6,39.3c-0.6,3.4,1.6,6,5.1,5.6
				c4.3-0.6,8.6-1.7,12.7-2.9c2.2-0.7,2.8-0.1,3.4,1.9c1.9,6.4,2.2,6.7-3.9,9.4c-6.3,2.8-12.7,5.4-19.3,7c-9,2.3-14.3-2.2-15-11.5
				C511.3,237.2,511.1,235.2,510.9,232.5z M469.6,216.4c0.4,2.3,0.7,4.5,1.1,6.6c1.9,10,8.7,13.8,18.1,10.3
				c9.2-3.5,16.8-9.3,23.9-15.8c0.7-0.6,1.2-1.6,1.4-2.5c0.8-3.6,1.5-7.3,2.2-10.9c2.4-12.3,4.7-24.7,7.2-37
				c0.6-2.7-0.4-3.6-2.7-4.1c-3-0.6-6.1-1-9-1.7c-10.1-2.7-18.5,0.6-25.3,7.9C474.2,182.5,470.2,198.9,469.6,216.4z"/>
			<path class="st0" d="M411.2,168.9c-8.5,1.4-16.7,2.6-24.9,4.1c-1.2,0.2-2.6,1.5-3.2,2.6c-8,14.9-18.2,28.1-29.1,40.9
				c-2,2.4-3.4,2.6-5.7,0.2c-4.9-5.3-5.3-3.3-0.4-9.4c8.1-10.3,16.2-20.7,22.1-32.6c0.3-0.7,0.6-1.4,1-2.2c-1.8-1-3.5-2-5.2-2.9
				c-3.5-1.9-4.8-5-4.7-8.7c0.3-10.1,11.5-20.9,21.6-20.8c5,0.1,8.2,3.1,8.4,8.1c0.1,3,0,6.1,0,9.7c1.5-0.3,3.4-0.4,5.2-0.9
				c9.6-2.9,19.2-5.8,28.8-8.9c2.7-0.9,8.6,0.8,9.7,3.3c0.2,0.5,0,1.4-0.3,2.1c-5.8,15.9-12,31.8-17.3,47.8
				c-2.7,8-4.2,16.5-5.5,24.9c-1.3,8.5,4.8,12.9,12.2,10.7c3.2-1,6.6-1.7,9.8-2.5c0.8-0.2,1.6-0.2,2.4-0.3c0.3,0.5,0.4,0.6,0.5,0.8
				c2.1,9.6,3.5,7.8-6.5,11.5c-5.6,2.1-11.5,3.5-17.4,4.4c-3.4,0.5-7.3,0.2-10.6-1c-5.7-2-7.7-7.1-8.2-12.8
				c-1-11.7,1.9-22.9,5.5-33.8c3.6-10.9,7.7-21.6,11.6-32.4C411.1,170.2,411.1,169.4,411.2,168.9z"/>
			<path class="st0" d="M148,250.9c0.3-5.5,0.5-10,0.7-14.6c0.1-2.3,1.8-2,3.4-1.9c8.1,0.4,16.2,1,24.3,0.8
				c4.7-0.1,9.6-1.2,14.1-2.6c5.9-1.8,8.7-7.5,6.1-13.1c-2.6-5.6-6.1-10.9-9.5-16c-3.5-5.3-7.5-10.2-11.3-15.3
				c-0.4-0.5-1-0.9-1.6-1.4c-4.8,3.8-9.4,7.6-14.2,11.2c-4.8,3.6-9.8,7-14.7,10.5c-1.6,1.2-2.6,1.1-3.7-0.6c-4.1-6.3-5-4.6,1.2-9.8
				c7.8-6.5,15.4-13.4,23.1-20c2.4-2.1,3.2-4.4,2.6-7.8c-2.5-15.5,6.2-25.4,16.7-29.3c2.7-1,6-1.1,9-0.9c3.4,0.2,5.6,2.8,6.1,6.3
				c0.6,4.3-0.3,8.3-2.4,12c-2.3,4.1-4.9,8-7.7,11.8c-1.2,1.6-1.6,2.9-0.4,4.6c4.9,7.1,10,14.2,14.7,21.4c3,4.6,6.1,9.3,8,14.3
				c5.8,15.2-0.8,28.5-16.3,34.5c-12,4.6-24.5,5.6-37.1,5.6C155.6,250.9,152.1,250.9,148,250.9z"/>
			<rect id="bottomrect" x="15.8" y="22.1" class="st1" width="791.9" height="305.9"/>
			<g id="holes" transform="translate(22.000000, 9.000000)">
				<g id="Hangers" transform="translate(8.000000, 0.000000)">
					<polygon id="Triangle" class="st2" points="25.8,22.1 35.8,42.1 15.8,42.1 					"/>
					<polygon id="Triangle_1_" class="st2" points="741.8,22.1 751.8,42.1 731.8,42.1 					"/>
				</g>
			</g>
		</g>
		<g id="emily">
			<path class="st0" d="M459.2,104.7c-0.2,1.6-0.1,3.2-0.5,4.7c-1.7,5.8-3.6,11.5-5.5,17.2c-0.3,0.9-1.1,2.3-1.8,2.3
				c-5,0.5-10,0.8-15.6,1.2c1.3-5.3,2.3-9.9,3.4-14.5c0.6-2.5,1.4-4.9,1.8-7.4c0.3-2.1,1.4-2.8,3.3-2.9c4.2-0.2,8.3-0.5,12.5-0.7
				C457.6,104.7,458.4,104.7,459.2,104.7z"/>
			<path class="st0" d="M307.1,234.5c1-5,1.8-9.4,2.7-13.8c3.2-15.6,6.4-31.2,9.5-46.9c0.5-2.3,0.5-4.6,0.8-7
				c0.8-8.9-4.1-11.7-12.6-9.5c-6.3,1.6-11.1,5.9-16,9.9c-6.4,5.2-9,12-10.3,19.8c-1.7,10.8-4.1,21.6-6.2,32.4
				c-0.9,4.4-1.8,8.8-2.8,13.1c-0.2,0.7-1.1,1.8-1.7,1.8c-4.4,0.2-8.7,0.1-13.6,0.1c0.9-4.6,1.6-8.8,2.4-12.9
				c2.5-12.9,5-25.8,7.4-38.7c2.1-12,3.9-24,6-36c0.1-0.9,1.3-2.1,2.2-2.2c3.7-0.4,7.4-0.6,11.1-0.8c1.9-0.1,2,1.1,1.8,2.5
				c-0.5,3.2-1,6.3-1.5,9.5c-0.2,1.4-0.4,2.8,0,4.7c0.8-0.7,1.6-1.4,2.3-2.2c6.1-6.2,12.6-11.8,21-14.3c4.3-1.3,9-1.9,13.4-1.7
				c7.3,0.4,11.9,6.6,12.1,14.8c0,1.3,0,2.6,0,4.8c1.5-1.4,2.5-2.2,3.3-3.1c6.6-6.5,13.7-12.4,22.7-14.9c4.6-1.3,9.6-1.9,14.3-1.6
				c7.4,0.5,12.1,6.9,12.4,15.2c0.3,8.5-1.7,16.6-3.7,24.7c-2.8,11.2-5.7,22.4-8.5,33.6c-0.2,0.9-0.2,1.9-0.2,2.9
				c-0.1,2.3,1.1,3.7,3.4,3.3c4.3-0.8,8.5-1.9,12.7-2.8c0.5-0.1,0.9-0.2,1.9-0.5c0.6,2.5,1.3,4.8,1.8,7.3c0.1,0.5-0.6,1.5-1.1,1.7
				c-8,4-15.9,8.2-25.3,8c-5.9-0.2-10.2-3.7-9.6-9.6c0.7-7.5,2.1-15,3.8-22.3c2.4-10.7,5.5-21.3,8-32c0.7-2.8,0.6-5.9,0.2-8.7
				c-0.7-5.1-5.8-7.7-11.5-6.3c-5.3,1.3-9.8,4.1-14.1,7.5c-0.6,0.5-1.2,1-1.8,1.5c-6.7,5.1-10.6,11.5-12,20.1
				c-2.4,14.5-5.8,28.8-8.8,43.1c-1.1,5.3-1.2,5.3-6.6,5.3C313.6,234.5,310.6,234.5,307.1,234.5z"/>
			<path class="st0" d="M610.4,212c-6,4.2-11.3,8.2-16.8,11.7c-5.6,3.6-11.8,5.3-18.4,5.9c-7.3,0.6-16.5-3.5-18.2-13.6
				c-1.4-8-0.7-15.9,0.7-23.8c2.6-15.6,7.5-30.6,13.1-45.3c0.7-1.8,1.6-2.5,3.4-2.4c4,0.1,8.1,0,12.5,0c-1.4,4-2.8,7.8-3.9,11.7
				c-3.6,13-7.3,26-10.3,39.2c-1,4.4-0.3,9.3,0.4,13.8c0.6,3.9,5,6.1,9,5.6c7.6-0.8,13.8-4.6,19.6-9c8.6-6.4,8.2-6.6,9.8-18.9
				c1.7-13.5,5.8-26.4,12.5-38.3c0.3-0.6,0.7-1.2,1.1-1.7c3.8-5.6,7-5.7,13.4-1.9c2.1,1.3,2.1,3.6,1.8,5.8
				c-1.5,10.9-5,21.2-9.2,31.2c-2.1,5-4.7,9.8-7,14.7c-0.5,1.2-1,2.6-0.9,3.9c0.2,6.8,0.8,13.6,1,20.4c0.2,5.7,0.3,11.4,0,17.1
				c-0.6,11.5-7.8,17.9-17.7,22.1c-10.2,4.4-21.1,4.9-32,5.6c-5.9,0.4-11.9-0.1-17.8-0.1c-2,0-2.9-0.6-2.5-2.8
				c0.6-3.8,1.2-7.7,1.7-11.5c0.2-1.7,1.1-2.1,2.8-2c9.2,0.4,18.5,1,27.7,0.8c5.8-0.1,11.6-1.3,17.3-2.3c4.6-0.8,7.4-3.9,7.5-8.4
				C611.1,230.4,610.6,221.3,610.4,212z"/>
			<path class="st0" d="M472.2,216.6c-1.5-2.5-3-4.8-4.7-7.5c3.4-2.5,6.5-4.9,9.8-7.1c2-1.3,2.7-3,2.8-5.3
				c1.4-27.3,9.1-52.4,25.8-74.3c5.1-6.6,11-12.4,19-15.5c5.7-2.3,11.5-2.9,17.1,0.4c5.1,3,6.7,8.2,7.3,13.6c1,10.7-2.1,20.6-7,30
				c-7.6,14.5-18.5,26.4-30.5,37.3c-4.8,4.4-10,8.4-14.8,12.7c-0.8,0.7-1.4,2.1-1.4,3.2c-0.1,5.4,0.8,10.5,4.4,14.8
				c3,3.6,7,4.6,11.6,3.9c7.1-1.1,13.5-4.2,19.8-7.5c2.2-1.1,3-0.6,3.8,1.5c2.2,5.6,2.4,5.8-2.9,8.5c-7.1,3.5-14.2,7.3-21.8,9.6
				c-7.4,2.2-15.3,2.4-21.8-3.4c-4.8-4.4-6.7-10.1-7.7-16.3c-0.5-3.7-0.7-3.8-3.8-1.7C475.6,214.4,474.1,215.4,472.2,216.6z
				 M495.6,188.8c0.3,0.1,0.5,0.3,0.8,0.4c1.9-1.7,3.9-3.4,5.8-5.2c10.6-10,20.4-20.7,26.7-34.1c3.1-6.6,5.7-13.4,5.2-21
				c-0.4-6.2-5.6-9.4-11.1-6.5c-1.7,0.9-3.2,2.2-4.6,3.5c-5,4.6-8.4,10.5-11.2,16.6c-5.2,11.3-8.4,23.2-10.3,35.4
				C496.2,181.6,496,185.2,495.6,188.8z"/>
			<path class="st0" d="M236.5,216.2c2.6,7.7,2.6,7.7-4,11c-11,5.4-22.4,9.6-34.9,9.4c-14.7-0.3-24.7-7.2-28-24.1
				c-4.9-24.7,10.5-55.3,32.5-66.2c8.4-4.2,17.2-5.4,26.3-3.2c11.4,2.8,16.2,13.3,14.8,24.1c-1.6,12.4-9.7,19.5-20.1,24.5
				c-8.6,4.2-17.7,6.5-27.1,7.8c-3.3,0.4-6.6,0.9-9.8,1.2c-1.8,0.2-2.6,0.9-2.5,2.8c0.4,10.8,6,18.3,17.9,18.8
				c10.8,0.4,21-2.3,31.2-5.2C234,216.8,235.2,216.5,236.5,216.2z M185,190.6c1.1,0,2,0.2,2.8,0c8-1.7,15.9-3.3,23.8-5.3
				c5.3-1.3,9.8-4.2,13.4-8.5c3.5-4.3,4.3-9.2,2.4-14.2c-2.2-5.7-9.3-8.1-16.1-6.6C195.6,159.6,186.3,178.4,185,190.6z"/>
			<path class="st0" d="M416.1,218.8c1.4-6.4,2.6-12.9,4.1-19.3c1.9-8,4-16,5.9-24.1c0.2-0.8-0.5-2.3-1.2-2.8
				c-2.1-1.6-4.3-2.9-6.6-4.2c-1.4-0.8-1.4-1.6-0.6-2.8c4.8-6.5,9.5-13,14.4-19.5c0.6-0.8,1.9-1.4,2.9-1.5c3.3-0.4,6.6-0.4,9.9-0.8
				c2.6-0.3,3.1,0.7,2.6,3c-2,8.4-4,16.8-5.9,25.3c-3.1,13.2-6.2,26.5-9.1,39.8c-1.6,7.4,1.8,11.2,9.3,10.4
				c5.7-0.6,11.2-2.3,16.8-3.7c1.9-0.5,2.5-0.2,3.1,1.7c1.7,5.8,1.8,5.8-3.5,8.5c-7.1,3.5-14.2,7-22.2,7.4c-3.5,0.2-7.3,0.1-10.6-1
				c-6.3-2.1-7.9-7.8-8.6-13.7c-0.1-0.8,0-1.6,0-2.3C416.5,218.8,416.3,218.8,416.1,218.8z"/>
			<rect id="toprect" x="15.8" y="22.1" class="st1" width="791.9" height="305.9"/>
			<g id="holes_1_" transform="translate(22.000000, 10.000000)">
				<g id="Hangers_1_" transform="translate(8.000000, 0.000000)">
					<polygon id="Triangle_2_" class="st2" points="25.8,32.1 35.8,52.1 15.8,52.1 					"/>
					<polygon id="Triangle_3_" class="st2" points="741.8,32.1 751.8,52.1 731.8,52.1 					"/>
				</g>
			</g>
		</g>
	</g>
</g>
<g id="Page-1_1_">
	<g id="pg-2">
		<g id="paul">
			<rect id="bottomrect_1_" x="18" y="634" class="st3" width="791.9" height="305.9"/>
			<path class="st0" d="M187.9,1185.3c1-5.7,1.9-10.9,2.9-15.9c2.7-14.1,5.5-28.4,8.1-42.6c2.4-12.1,4.7-24,6.9-36.1
				c1.9-10.9,3.7-22,5.3-32.9c0.4-2.9,1.5-4,4.4-4c3.1,0,6-0.1,9.1-0.6c2.7-0.3,3.4,0.6,2.9,3.1c-0.7,4.1-1.3,8.3-2.1,13.3
				c4-3.2,7.4-6,10.8-8.5c5.2-3.8,10.5-7.1,16.8-9c11.5-3.4,22.4,2.1,26.7,13.3c3.7,9.9,3.4,20,1.9,30.1
				c-1.6,12.2-5.9,23.6-13.4,33.5c-13.6,17.5-31.2,26.2-53.6,23.9c-4.4-0.4-4.3-0.4-5.2,4c-1.6,8.3-3.2,16.5-5,24.6
				c-0.1,0.9-1,2.2-1.8,2.2C198.1,1184.4,193.2,1184.7,187.9,1185.3z M266.9,1087.4c-0.4-2.7-0.6-6.2-1.5-9.4
				c-1.9-7.2-8.1-13.6-17.7-10c-7.4,2.7-13.4,7.2-19.5,11.9c-3.2,2.5-5.7,5.3-5.9,9.9c0,1.9-0.6,3.7-1,5.6
				c-2.5,12.8-4.9,25.5-7.4,38.3c-0.3,1.8,0.3,2.5,1.9,2.9c2.5,0.6,5.2,1.2,7.7,1.8c10.3,2.5,19.5,0.9,27-7.4
				C261.6,1118.8,265.6,1104.1,266.9,1087.4z"/>
			<path class="st0" d="M521.8,1131.5c-1.6-2.7-3.2-5.2-5-8.1c3.5-2.5,6.9-5.2,10.3-7.4c2.2-1.5,3.1-3.2,3.2-5.9
				c1.6-29.3,9.7-56.6,27.9-80.2c6.2-8.1,13.4-15,23.7-17.8c12.7-3.5,22.3,3.4,23.1,16.5c0.7,11.5-2.4,22-7.7,32
				c-8.1,15.6-19.7,28.3-32.7,39.9c-5.2,4.7-10.8,9.1-15.9,13.7c-0.9,0.9-1.6,2.4-1.6,3.7c-0.3,5.6,0.7,10.9,4.3,15.5
				c3.2,4.1,7.8,6,12.8,4.6c8-2.4,15.8-5.3,24.5-8.4c0.7,1.9,1.9,4.6,2.9,7.2c0.1,0.4-0.9,1.3-1.5,1.8c-8.7,5.5-17.5,10.6-27.6,12.8
				c-8.3,1.8-16.7,2.2-23.4-4.4c-4.7-4.6-6.8-10.3-7.8-16.5c-0.7-4.6-0.7-4.7-4.7-2.2C525.2,1129.4,523.7,1130.5,521.8,1131.5z
				 M547,1102c1-0.4,1.5-0.4,1.8-0.7c1.8-1.5,3.5-2.9,5.2-4.6c12.4-11.6,23.6-24.2,30.4-40.1c2.7-6.3,4.9-13,4.1-20
				c-0.6-5-5-10.2-11.8-6.5c-1.9,1-3.7,2.5-5.3,4c-6.3,6-10.2,13.6-13.6,21.4c-4.4,10.6-7.4,21.7-9.3,32.9
				C547.9,1092.6,547.6,1097,547,1102z"/>
			<path class="st0" d="M355,1135.2c-5.6,4.1-10.6,8.3-16.2,11.5c-4.7,2.7-10,4.9-15.3,6.2c-10,2.5-19.7-4.4-22.5-15.6
				c-2.7-10.8-2.2-21.7,0.3-32.4c2.9-13,8.5-24.8,17.8-34.5c13.7-14.4,30.2-21.1,50.1-18c5.2,0.7,10.3,1.8,15.5,2.7
				c1.6,0.3,2.1,1,1.8,2.7c-1.5,7.7-2.9,15.5-4.4,23.1c-2.2,11.3-4.6,22.5-6.8,33.9c-1.2,5.6-2.1,11.3-3.2,16.9
				c-0.7,3.8,1.2,6.5,5,5.9c4-0.6,8-1.6,11.9-2.8c2.2-0.7,2.7,0,3.2,1.9c1.9,6.2,2.1,6.5-3.8,9c-6,2.7-12.1,5.2-18.4,6.8
				c-8.5,2.2-13.7-2.1-14.3-11.1C355.3,1139.3,355.2,1137.4,355,1135.2z M315.2,1117.4c0.6,3.5,0.7,7.1,1.8,10.5
				c2.1,7.2,6.3,9.9,13.7,8.5c7.1-1.2,12.7-5.6,18.6-9.6c5.6-3.8,9.4-8.3,10.5-15.8c1.8-13.3,4.9-26.4,7.7-39.5
				c0.4-2.2-0.7-2.9-2.4-3.2c-4.1-0.9-8.4-1.8-12.7-2.4c-4.4-0.7-8.5,0.1-12.5,2.2c-8.1,4.3-13.3,11.2-17.1,19.2
				C318.2,1096.7,315.7,1106.9,315.2,1117.4z"/>
			<path class="st0" d="M470.5,1131.9c-1.8,1.5-2.8,2.5-3.8,3.4c-6.9,6.6-14.1,12.8-23.4,15.9c-7.5,2.5-15,3.2-22.1-1.3
				c-6.5-4.1-8.3-10.8-8-17.5c0.4-8.7,2.2-17.2,3.7-25.8c1-6.2,2.7-12.2,4.1-18.4c0.6-2.4,0-4-2.2-5.2c-2.2-1.2-4.4-2.5-6.3-4.1
				c-0.6-0.4-0.9-2.2-0.6-2.7c5.2-7.1,10.5-14.1,15.8-21.2c0.6-0.7,1.8-1.2,2.7-1.3c3.8-0.4,7.8-0.6,11.6-1c2.4-0.3,2.9,0.4,2.4,2.8
				c-3.7,16.2-7.5,32.4-11.1,48.8c-1.5,6.5-2.8,13-3.5,19.5c-0.7,7.1,2.4,11.6,8.1,13.3c4.9,1.3,9.4-0.6,13.6-2.7
				c8.7-4.4,15.3-11.3,21.4-18.7c1.6-2.1,1.9-5.5,2.4-8.3c2.7-13.1,5.2-26.1,7.7-39.2c0.9-4.3,1.6-8.4,2.5-12.7
				c0.1-0.7,1.3-1.8,2.1-1.8c4.6-0.1,9.1-0.1,14.3-0.1c-0.9,4.7-1.5,9-2.4,13.3c-3.5,18-7.1,36-10.6,53.9c-0.7,3.5-1.5,7.2-2.1,10.8
				c-0.6,4,1.2,6.2,5.2,5.7c4-0.6,7.7-1.8,11.6-2.8c0.6-0.1,1.6-0.6,1.8-0.4c0.9,2.1,1.9,4.3,2.7,6.5c0.1,0.7-0.3,2.4-0.9,2.7
				c-8.4,4.3-16.5,9.1-26.4,9c-5.7-0.1-9.1-2.8-9.9-8.4c-0.3-2.7-0.3-5.2-0.4-7.8C470.5,1135,470.5,1134,470.5,1131.9z"/>
			<g id="holes_3_" transform="translate(22.000000, 315.000000)">
				<g id="Hangers_3_" transform="translate(8.000000, 0.000000)">
					<polygon id="Triangle_7_" class="st3" points="28,634 38,654 18,654 					"/>
					<polygon id="Triangle_6_" class="st3" points="744,634 754,654 734,654 					"/>
				</g>
			</g>
		</g>
		<g id="amalie" transform="translate(0.000000, 10.000000)">
			<rect id="toprect_1_" x="18" y="930" class="st3" width="791.9" height="305.9"/>
			<g>
				<path class="st4" d="M278.7,850.9c1-5.2,2-10,2.8-14.7c2.8-14.4,5.8-28.9,8.6-43.3c0.7-3.5,1.2-6.9,1.6-10.5
					c0.9-8.9-4.2-11.6-12.6-9.5c-6.4,1.6-11.2,5.8-16.2,9.9c-6.4,5.3-9.1,12-10.5,20c-2.2,13.5-5.2,26.8-7.8,40.3
					c-0.4,2.1-0.9,4.2-1.4,6.3c-0.1,0.6-0.9,1.5-1.4,1.5c-4.4,0.1-9,0.1-14,0.1c0.7-3.8,1.2-7.2,1.9-10.5
					c2.1-10.7,4.3-21.6,6.3-32.4c2.1-11.6,4.1-23.2,6.2-34.8c0.6-3.5,1.1-7,1.5-10.5c0.2-1.9,1.1-2.6,2.8-2.6
					c3.3-0.1,6.7-0.4,10-0.6c2.3-0.2,2.7,0.9,2.5,2.8c-0.6,3.7-1.2,7.4-1.9,11.1c-0.1,0.9-0.1,1.9-0.2,3.3c4.3-3.8,8-7.3,12-10.4
					c6.5-5.1,13.8-8.5,22.5-8.6c10.9,0,14.7,6.2,15.7,15.3c0.1,1.2,0,2.5,0,4.7c1.4-1.2,2.1-1.9,2.8-2.6
					c6.8-6.7,14.1-12.6,23.3-15.6c5.6-1.9,11.2-2.5,17.2-1c6.3,1.5,9.8,8.4,10.1,15.1c0.4,8.4-1.6,16.4-3.6,24.5
					c-2.7,10.6-5.6,21.1-8.3,31.6c-0.2,0.9-0.4,1.7-0.4,2.6c-0.6,6.3,1.1,7.7,7.3,6.1c1.9-0.5,3.6-1,5.4-1.5c1.7-0.5,3.3-1,5.4-1.5
					c0.6,2.5,1.4,4.7,1.7,6.9c0.1,0.6-0.5,1.7-1,2.1c-8,4.1-16.1,8.4-25.6,8.2c-6.2-0.1-10.4-3.7-9.9-9.9c0.7-7.5,2.1-14.9,3.7-22.2
					c2.5-10.9,5.6-21.7,8.2-32.6c0.6-2.6,0.6-5.6,0.2-8.2c-0.6-5.6-5.9-8.3-11.9-6.8c-5.4,1.4-10.1,4.3-14.4,7.8
					c-0.7,0.6-1.5,1.4-2.2,2c-7.3,5.1-10.1,12.3-11.5,20.9c-2,12-4.8,23.8-7.3,35.8c-0.6,2.8-1.2,5.8-1.6,8.6
					c-0.4,2.1-1.1,3.3-3.6,3.2C287.2,850.8,283.3,850.9,278.7,850.9z"/>
				<path class="st4" d="M477.8,825.4c3.6-2.6,6.8-4.9,10.1-7.2c1.9-1.2,2.6-2.8,2.7-5.1c1.5-27.5,9-53,25.9-75.2
					c5.8-7.5,12.6-14.2,22.2-16.8c12.1-3.3,21,3,21.9,15.6c0.7,10.6-2.2,20.4-7,29.8c-7.7,14.7-18.6,26.7-30.9,37.8
					c-4.9,4.4-10.1,8.5-14.9,12.8c-0.9,0.7-1.4,2.1-1.5,3.2c-0.4,5.2,0.6,10,3.7,14.3c3.1,4.2,7.5,6.1,12.5,4.6
					c7.5-2.2,14.8-5.1,22.7-7.8c0.7,1.7,2,4.1,2.8,6.5c0.1,0.4-0.6,1.4-1.2,1.7c-8.3,5.2-16.7,10.1-26.4,12.2
					c-7,1.5-14.3,1.9-20.5-3.3c-4.9-4.2-7-9.8-8.3-15.9c-0.1-0.9-0.2-1.7-0.4-2.6c-0.2-1.6-1.1-1.9-2.5-1c-1.9,1.2-3.8,2.5-6.1,4
					C481.1,830.6,479.6,828.2,477.8,825.4z M506.3,804.7c0.2,0.1,0.6,0.4,0.9,0.5c1.9-1.7,3.8-3.3,5.7-5.1
					c10.9-10.3,20.9-21.2,27.3-34.8c2.7-5.8,5.1-11.7,5.2-18.3c0.1-3.8-0.4-7.7-4.3-9.6c-4-2-7.4-0.2-9.9,2.5
					c-4.1,4.3-8,9-10.9,14.1c-6.9,12-10.1,25.3-12.5,38.8C506.9,796.7,506.7,800.7,506.3,804.7z"/>
				<path class="st4" d="M433.7,836.2c-0.9,0.6-1.6,1.2-2.5,2c-6.4,5.2-13,10.2-20.7,13.2c-15.4,5.8-26.2-2.8-28-17.3
					c-2.5-18.6,1.5-36.2,12.3-51.9c8.2-11.6,19-19.8,33-23.2c8.5-2.1,17-1.1,25.4,0.2c2.8,0.5,5.8,1.1,8.6,1.9
					c0.7,0.2,1.6,1.5,1.5,2.1c-1.7,9.4-3.6,18.6-5.4,28c-2.7,14-5.6,27.9-8.2,41.9c-0.6,3.2,1.4,5.7,4.6,5.2
					c3.8-0.5,7.7-1.6,11.5-2.6c1.7-0.5,2.3-0.2,2.8,1.6c1.7,5.9,2,6.2-3.6,8.6c-5.4,2.3-11,4.7-16.8,6.2c-8.8,2.1-13.5-1.9-14-11
					c-0.1-1.6,0-3.1,0-4.7C434.2,836.5,434,836.4,433.7,836.2z M397,820.3c0.2,1.7,0.5,4.6,1,7.4c1.7,8.9,7.8,12.2,16.4,9
					c7.2-2.6,13-7.3,18.9-11.7c2.8-2.1,4-4.9,4.6-8.2c2.5-13.2,4.9-26.4,7.7-39.6c0.5-2.2-0.4-3.1-2.3-3.5c-2.7-0.5-5.4-0.9-8-1.6
					c-10.1-2.6-17.9,1.2-24.3,8.6C401.5,791.9,398,805.1,397,820.3z"/>
				<path class="st4" d="M178.9,836.2c-0.9,0.7-1.7,1.4-2.7,2.1c-6.3,5.1-12.6,10-20.3,13c-15.3,5.9-26.3-2.1-28.2-16.5
					c-3-22.7,2.6-43.5,18.9-60.4c12.5-13,27.8-18.5,45.8-15.7c4.8,0.7,9.6,1.7,14.4,2.5c1.7,0.2,2,1,1.7,2.6
					c-3.1,15.6-6.3,31-9.3,46.6c-1.5,7.7-3,15.2-4.3,22.8c-0.6,3.5,1.4,5.8,4.8,5.3c3.8-0.5,7.5-1.5,11.1-2.6c2-0.6,2.6-0.1,3.1,1.7
					c1.6,5.8,1.9,6.1-3.6,8.4c-5.7,2.5-11.4,4.8-17.3,6.3c-8,2.1-13.1-2.2-13.5-10.6c0-1.6,0-3.3,0-4.9
					C179.4,836.6,179.2,836.5,178.9,836.2z M142.3,820.4c0.2,1.9,0.5,4.7,1,7.3c1.6,8.6,7.9,12.1,16.2,9c8.3-3.1,15.1-8.3,21.5-14.2
					c0.6-0.5,1.1-1.5,1.2-2.2c0.7-3.3,1.5-6.7,2.1-10.1c2.1-11,4.1-22,6.4-33c0.5-2.3-0.2-3.3-2.3-3.7c-2.7-0.5-5.4-0.9-8-1.6
					c-10-2.6-17.8,1.1-24.1,8.5C146.6,791.8,143.1,805.2,142.3,820.4z"/>
				<path class="st4" d="M697.2,832.5c0.5,0.4,0.5,0.5,0.6,0.6c2.3,7.2,2.3,7.2-4.2,10.4c-10.9,5.3-22.1,9.4-34.3,9.5
					c-16.2,0.2-27.2-9.3-29.5-25.4c-3.8-25.4,10.9-54.5,33.2-65.9c8.4-4.3,17.2-5.4,26.3-3.2c11.6,2.7,16.4,13.5,15.1,24.3
					c-1.5,12.5-9.5,19.6-20,24.7c-8.8,4.3-18,6.7-27.5,8c-3.5,0.5-6.8,0.9-10.3,1.2c-1.7,0.1-2.3,0.9-2.3,2.6
					c0.2,10.9,5.9,18.6,17.9,19.1c11,0.5,21.4-2.3,31.9-5.3C695,833,696.1,832.9,697.2,832.5z M645.3,806.6c1.7,0,3.1,0.2,4.3,0
					c7-1.5,14.1-2.7,21-4.6c5.9-1.6,11.4-4.4,15.4-9.4c5.2-6.3,5.1-19.1-6.9-21c-3.5-0.5-7.5,0.2-10.9,1.5
					c-8.6,3.2-14.1,10.1-18,18.2C647.8,796.1,646,801,645.3,806.6z"/>
				<path class="st4" d="M617.1,834.4c0.2,0.4,0.4,0.6,0.5,0.9c2.6,8.8,2.1,6.9-4.2,10.1c-6.8,3.6-13.8,6.7-21.6,7
					c-3.5,0.2-7.2,0-10.4-1.1c-6.4-2.2-8.5-8-8.5-14.2c0-5.6,1-11.1,2.2-16.5c2.1-9.8,4.8-19.5,7-29.3c0.2-1-0.6-2.6-1.5-3.2
					c-1.9-1.6-4.1-2.8-6.2-4.1c-1.5-0.9-1.6-1.7-0.6-3.1c4.8-6.5,9.6-13.2,14.6-19.8c0.5-0.7,1.7-1.2,2.7-1.4
					c3.5-0.4,6.9-0.5,10.2-0.9c2.5-0.2,3,0.9,2.5,3c-3.2,13.5-6.4,26.9-9.5,40.5c-2.1,9-4.2,18-5.8,27c-1.1,5.7,2.2,9.4,8,8.8
					c6.3-0.7,12.5-2.5,18.8-3.8C615.7,834.5,616.4,834.5,617.1,834.4z"/>
				<path class="st5" d="M615,720.6c-2.3,7.3-4.4,14.4-6.8,21.5c-0.2,0.9-1.2,2.1-2,2.2c-4.9,0.5-9.9,0.7-15.4,1.1
					c0.7-3.6,1.4-6.5,2.1-9.4c1.1-4.4,2.1-8.8,3.3-13.1c0.2-1,1.6-2.2,2.5-2.2c4.9-0.4,10-0.5,15.1-0.6
					C614,720,614.4,720.4,615,720.6z"/>
			</g>
			<g id="holes_2_" transform="translate(22.000000, 0.000000)">
				<g id="Hangers_2_" transform="translate(8.000000, 0.000000)">
					<polygon id="Triangle_5_" class="st3" points="28,644 38,664 18,664 					"/>
					<polygon id="Triangle_4_" class="st3" points="744,644 754,664 734,664 					"/>
				</g>
			</g>
		</g>
	</g>
</g>
</svg>
